<svg width="43" height="36" xmlns="http://www.w3.org/2000/svg">

    <g>
        <title>background</title>
        <rect fill="none" id="canvas_background" height="402" width="582" y="-1" x="-1"/>
    </g>
    <g>
        <title>Layer 1</title>
        <path stroke="null" id="svg_1" fill="#000000" d="m3.94911,2.36947c0,-1.18473 1.18474,-2.36947 2.36947,-2.36947l11.05752,23.6947l0,12.2423l-11.45243,0c-0.78982,0 -1.97456,-1.1847 -1.97456,-1.9746l0,-11.0575c0,-0.7898 -1.18473,-1.9746 -1.97455,-1.9746l-1.97456,0l0,-5.5287l1.97456,0c0.78982,0 1.97455,-1.1848 1.97455,-1.9746l0,-11.05753zm35.54199,0c0,-1.18473 -1.1847,-2.36947 -2.3694,-2.36947l-11.0576,23.6947l0,12.2423l11.4525,0c0.7898,0 1.9745,-1.1847 1.9745,-1.9746l0,-11.0575c0,-0.7898 1.1847,-1.9746 1.9746,-1.9746l1.9745,0l0,-5.5287l-1.9745,0c-0.7899,0 -1.9746,-1.1848 -1.9746,-1.9746l0,-11.05753zm-17.9684,13.03213l-5.7263,-15.4016l11.8474,0l-6.1211,15.4016z" clip-rule="evenodd" fill-rule="evenodd"/>
    </g>
</svg>
